<svg width="128" height="46" viewBox="0 0 128 46" fill="none" xmlns="http://www.w3.org/2000/svg">
<path d="M128 0.58374L34.3573 40.4557C26.592 43.7411 20.0693 45.3891 14.7947 45.3891C8.82132 45.3891 4.48532 43.2984 1.79732 39.1117C0.10665 36.4237 -0.38935 33.0157 0.303984 28.8824C0.997317 24.7491 2.84265 20.3491 5.82932 15.6664C8.31998 11.8797 12.4 6.90374 18.08 0.733073C16.1534 3.76596 14.7406 7.09605 13.8987 10.5891C12.4053 16.9624 13.7493 21.6397 17.9307 24.6264C19.92 26.0184 22.656 26.7171 26.144 26.7171C28.928 26.7171 32.064 26.2691 35.552 25.3731L128 0.58374Z" fill="black"/>
</svg>
