<svg width="128" height="86" viewBox="0 0 128 86" fill="none" xmlns="http://www.w3.org/2000/svg">
<path d="M63.6587 74.7276C63.6587 71.2929 66.416 68.5409 69.856 68.5409C73.2907 68.5409 76.0427 71.2929 76.0427 74.7276C76.0455 75.541 75.8874 76.3471 75.5776 77.0992C75.2677 77.8514 74.8122 78.5349 74.2372 79.1103C73.6623 79.6858 72.9792 80.1419 72.2273 80.4524C71.4754 80.7629 70.6695 80.9217 69.856 80.9196C69.0421 80.9231 68.2355 80.7655 67.4827 80.456C66.7299 80.1465 66.0458 79.6911 65.4698 79.116C64.8937 78.541 64.4371 77.8576 64.1263 77.1054C63.8155 76.3531 63.6566 75.5415 63.6587 74.7276ZM88.8533 74.7329C88.8533 71.2929 91.6107 68.5356 95.0453 68.5356C98.48 68.5356 101.237 71.2929 101.237 74.7276C101.237 78.1622 98.48 80.9196 95.0507 80.9196C94.2367 80.9231 93.4301 80.7655 92.6774 80.456C91.9246 80.1465 91.2405 79.6911 90.6644 79.116C90.0884 78.541 89.6318 77.8576 89.321 77.1054C89.0101 76.3531 88.8512 75.5468 88.8533 74.7329ZM30.4533 74.7329C30.4533 71.2929 33.2107 68.5356 36.6453 68.5356C40.08 68.5356 42.832 71.2929 42.832 74.7276C42.832 78.1622 40.08 80.9196 36.6453 80.9196C35.8318 80.9224 35.0258 80.7643 34.2737 80.4545C33.5215 80.1446 32.838 79.6891 32.2625 79.1141C31.6871 78.5392 31.231 77.8561 30.9205 77.1042C30.61 76.3523 30.4512 75.5464 30.4533 74.7329ZM5.25867 74.7329C5.25867 71.2929 8.016 68.5356 11.4507 68.5356C14.8853 68.5356 17.6427 71.2929 17.6427 74.7276C17.6455 75.5415 17.4872 76.3479 17.1771 77.1005C16.8669 77.853 16.4109 78.5367 15.8354 79.1122C15.2598 79.6878 14.5761 80.1438 13.8236 80.454C13.0711 80.7641 12.2646 80.9224 11.4507 80.9196C10.6376 80.9217 9.83219 80.7631 9.08064 80.4529C8.32908 80.1428 7.64623 79.6871 7.07133 79.1122C6.49642 78.5373 6.04079 77.8545 5.73063 77.1029C5.42047 76.3514 5.25656 75.5459 5.25867 74.7329ZM56.1973 63.7889H50.8107V85.4582H56.1973V63.7889ZM17.6 85.4582H22.9867V63.7889H17.6V65.5275C15.7223 64.2208 13.4876 63.5243 11.2 63.5329C5.00267 63.5329 0 68.5355 0 74.7329C0 80.9622 5.00267 85.9276 11.2 85.9276C13.5733 85.9276 15.776 85.2076 17.6 83.9329V85.4582ZM101.195 85.4582H106.581V63.7889H101.195V65.5275C99.317 64.2208 97.0823 63.5243 94.7947 63.5329C88.5973 63.5329 83.5947 68.5355 83.5947 74.7329C83.5897 76.2048 83.8761 77.6632 84.4373 79.024C84.9984 80.3847 85.8233 81.621 86.8644 82.6616C87.9055 83.7022 89.1421 84.5265 90.5032 85.087C91.8642 85.6475 93.3227 85.9332 94.7947 85.9276C97.168 85.9276 99.3707 85.2076 101.195 83.9329V85.4582ZM108.576 78.4182C108.747 82.7915 112.48 85.8849 118.709 85.8849C123.803 85.8849 128 83.6769 128 78.8022C128 75.4102 126.091 73.4156 121.68 72.5622L118.245 71.8902C116.037 71.4636 114.512 71.0369 114.512 69.7249C114.512 68.2849 115.995 67.6449 117.861 67.6449C120.581 67.6449 121.68 69.0049 121.765 70.6156H127.195C126.896 66.3755 123.504 63.5329 118.032 63.5329C112.395 63.5329 109.04 66.6262 109.04 70.6582C109.04 75.5755 113.029 76.3809 116.464 77.0209L119.307 77.5275C121.344 77.9116 122.235 78.5035 122.235 79.6929C122.235 80.7542 121.216 81.8102 118.795 81.8102C115.275 81.8102 114.133 79.9862 114.091 78.4182H108.576ZM42.7947 56.4076V65.5275C40.917 64.2208 38.6823 63.5243 36.3947 63.5329C30.1973 63.5329 25.1947 68.5355 25.1947 74.7329C25.1947 80.9622 30.1973 85.9276 36.3947 85.9276C38.7627 85.9276 40.9707 85.2076 42.7947 83.9329V85.4582H48.1813V56.4076H42.7947ZM76 56.4076V65.5275C74.1223 64.2208 71.8876 63.5243 69.6 63.5329C63.408 63.5329 58.4 68.5355 58.4 74.7329C58.3951 76.2048 58.6814 77.6632 59.2426 79.024C59.8038 80.3847 60.6287 81.621 61.6697 82.6616C62.7108 83.7022 63.9475 84.5265 65.3085 85.087C66.6696 85.6475 68.1281 85.9332 69.6 85.9276C71.9733 85.9276 74.176 85.2076 76 83.9329V85.4582H81.3867V56.4076H76ZM13.9947 50.0076L17.6427 56.4076H42.7947L32.8267 39.1862L14 50.0022L13.9947 50.0076ZM56.1973 61.7942V56.4076H76L54.88 19.8476L36.0053 30.6635L50.8107 56.4076V61.7942H56.1973ZM84.0213 56.4076H109.211L76.64 0.0395508L57.808 10.8982L84.0213 56.4076Z" fill="black"/>
</svg>
