<svg width="128" height="36" viewBox="0 0 128 36" fill="none" xmlns="http://www.w3.org/2000/svg">
<path d="M79.952 15.2104C94.6347 9.34372 103.776 5.97305 128 0.0637207C114.843 0.933054 85.7493 2.92772 65.696 6.84239L79.952 15.2157M34.2987 34.6877H53.4987C57.3013 28.9277 61.0827 26.1224 65.488 23.0024C62.1422 21.7087 58.7783 20.4623 55.3973 19.2637C43.1467 24.6717 36.3307 31.9304 34.3147 34.6877M38.096 13.7384C20.976 19.8557 11.4613 26.5011 5.03467 34.6877H26.2347C28.2987 31.8131 36.1653 23.5251 50.944 17.7597C46.6897 16.3247 42.4096 14.9839 38.096 13.7384ZM46.88 0.853053H0C47.264 9.38639 70.0427 20.3731 106.667 35.9037C103.536 33.5624 53.0613 3.83439 46.8853 0.853053" fill="black"/>
</svg>
