<svg width="128" height="100" viewBox="0 0 128 100" fill="none" xmlns="http://www.w3.org/2000/svg">
<path d="M127.173 2.02627C124.949 -0.816397 121.061 1.46094 119.349 2.45294C107.168 9.6316 105.37 22.2716 101.125 29.5303C97.7864 35.3436 92.3144 39.6103 87.3651 39.9409C83.7064 40.2023 79.7384 39.4929 75.8024 37.7809C66.1651 33.6156 60.9758 28.2236 59.7118 27.2743C57.1144 25.3009 37.1518 5.86094 20.8851 5.06627C20.8851 5.06627 18.9011 1.06627 18.4051 0.996937C17.2211 0.863604 16.0051 3.40227 15.1198 3.66894C14.3198 3.9516 12.9171 0.93827 12.1064 1.0716C11.2904 1.17827 10.4958 4.19694 8.90644 5.74894C7.73311 6.88494 6.31444 6.8156 5.50911 8.21827C5.23177 8.73027 5.32777 9.6316 5.01311 10.4583C4.33577 12.1649 2.07444 12.3463 2.05311 14.1756C2.05311 16.2076 3.95711 16.5969 5.62111 18.0156C6.94377 19.1463 7.03444 19.9463 8.57577 20.4743C9.95177 20.9436 11.9464 19.4769 13.7171 20.0049C15.1944 20.4369 16.6131 20.7516 16.9278 22.2609C17.2158 23.6263 16.9278 25.7703 15.1144 25.5303C14.5171 25.4503 11.9251 24.6023 8.72511 24.9436C4.85844 25.3543 0.442441 26.5916 0.0104413 30.8636C-0.208225 33.2476 2.75178 36.0369 5.63711 35.4823C7.61577 35.1036 6.68244 32.7836 7.76511 31.6636C9.18911 30.2236 17.2158 36.6983 24.6824 36.6983C27.8451 36.6983 30.1811 35.8983 32.5064 33.4716C32.7198 33.3169 33.0024 32.9276 33.3331 32.8849C33.7039 32.9811 34.0556 33.1399 34.3731 33.3543C40.4051 38.1383 44.9544 47.7543 67.0664 47.8663C70.1704 47.9036 73.7331 49.3543 76.6451 52.0103C79.2051 54.3196 80.7198 58.0103 82.1758 61.7436C84.4051 67.3596 88.3678 72.7783 94.3998 78.8263C94.7198 79.1889 99.6798 82.9863 100.053 83.2689C100.117 83.3223 100.501 84.1596 100.336 84.6289C100.229 88.3089 99.6798 98.8689 107.616 99.3116C109.568 99.4183 109.082 98.0796 109.082 97.1249C109.056 95.3063 108.736 93.4716 109.685 91.5783C111.034 89.0289 106.88 87.7969 106.97 82.2129C107.072 78.0316 103.53 78.7409 101.722 75.5463C100.709 73.7169 99.7598 72.7089 99.8558 70.5009C100.245 57.8076 97.0984 49.4449 95.5624 47.4236C94.3518 45.8556 93.3064 45.2743 94.4584 44.5436C101.072 40.1969 102.592 36.1489 102.592 36.1489C106.112 27.9303 109.29 20.4423 113.658 17.1089C114.544 16.4689 116.8 14.7623 118.202 14.1223C122.272 12.1916 124.458 11.0396 125.605 9.9196C127.504 8.12227 128.992 4.3036 127.173 2.02627Z" fill="black"/>
</svg>
